HIERARCHY
ROOT root
{
	OFFSET	0	13.1	24.9
	CHANNELS 6  Xposition Yposition Zposition Xrotation Yrotation Zrotation
	JOINT spine_1
	{
		OFFSET	0	9.99999	0
		CHANNELS 3  Xrotation Yrotation Zrotation
		JOINT spine_2
		{
			OFFSET	0	112	-10
			CHANNELS 3  Xrotation Yrotation Zrotation
			JOINT spine_3
			{
				OFFSET	0	206.5	19.3
				CHANNELS 3  Xrotation Yrotation Zrotation
				JOINT spine_4
				{
					OFFSET	0	110.4	14.6
					CHANNELS 3  Xrotation Yrotation Zrotation
					JOINT neck_1
					{
						OFFSET	0	71.8	-50.3
						CHANNELS 3  Xrotation Yrotation Zrotation
						JOINT neck_2
						{
							OFFSET	0	86.2	-25.8
							CHANNELS 3  Xrotation Yrotation Zrotation
							JOINT head_ee
							{
								OFFSET	0	179.8	-8.7
								CHANNELS 3  Xrotation Yrotation Zrotation
								End Site
								{
									OFFSET	1	0	0
								}
							}
						}
					}
					JOINT left_clavicle
					{
						OFFSET	-43.2	22.4	-70.8
						CHANNELS 3  Xrotation Yrotation Zrotation
						JOINT left_shoulder
						{
							OFFSET	-93.9	-5.79999	48.7
							CHANNELS 3  Xrotation Yrotation Zrotation
							JOINT left_elbow
							{
								OFFSET	-291.4	-30.8	15.2
								CHANNELS 3  Xrotation Yrotation Zrotation
								JOINT left_lowarm_twist
								{
									OFFSET	-110.7	-3.89999	13.6
									CHANNELS 3  Xrotation Yrotation Zrotation
									JOINT left_hand
									{
										OFFSET	-110.7	-3.89999	13.6
										CHANNELS 3  Xrotation Yrotation Zrotation
										JOINT left_ee
										{
											OFFSET	-80.8	-5.10001	12.1
											CHANNELS 3  Xrotation Yrotation Zrotation
											End Site
											{
												OFFSET	1	0	0
											}
										}
									}
								}
							}
						}
					}
					JOINT right_clavicle
					{
						OFFSET	43.2	22.4	-70.8
						CHANNELS 3  Xrotation Yrotation Zrotation
						JOINT right_shoulder
						{
							OFFSET	93.9	-5.79999	48.7
							CHANNELS 3  Xrotation Yrotation Zrotation
							JOINT right_elbow
							{
								OFFSET	291.4	-30.8	15.2
								CHANNELS 3  Xrotation Yrotation Zrotation
								JOINT right_lowarm_twist
								{
									OFFSET	110.7	-3.89999	13.6
									CHANNELS 3  Xrotation Yrotation Zrotation
									JOINT right_hand
									{
										OFFSET	110.7	-3.89999	13.6
										CHANNELS 3  Xrotation Yrotation Zrotation
										JOINT right_ee
										{
											OFFSET	80.8	-5.10001	12.1
											CHANNELS 3  Xrotation Yrotation Zrotation
											End Site
											{
												OFFSET	1	0	0
											}
										}
									}
								}
							}
						}
					}
				}
			}
		}
	}
	JOINT left_hip
	{
		OFFSET	-82.8	-127.5	0.300001
		CHANNELS 3  Xrotation Yrotation Zrotation
		JOINT left_knee
		{
			OFFSET	-28.2	-396.7	2.2
			CHANNELS 3  Xrotation Yrotation Zrotation
			JOINT left_ankle
			{
				OFFSET	-11.7	-411.3	35.4
				CHANNELS 3  Xrotation Yrotation Zrotation
				JOINT left_toes
				{
					OFFSET	0	-60	-88.6
					CHANNELS 3  Xrotation Yrotation Zrotation
					JOINT left_foot_ee
					{
						OFFSET	-22.5	-16.5	-42.2
						CHANNELS 3  Xrotation Yrotation Zrotation
						End Site
						{
							OFFSET	1	0	0
						}
					}
				}
			}
		}
	}
	JOINT right_hip
	{
		OFFSET	82.8	-127.5	0.300001
		CHANNELS 3  Xrotation Yrotation Zrotation
		JOINT right_knee
		{
			OFFSET	28.2	-396.7	2.2
			CHANNELS 3  Xrotation Yrotation Zrotation
			JOINT right_ankle
			{
				OFFSET	11.7	-411.3	35.4
				CHANNELS 3  Xrotation Yrotation Zrotation
				JOINT right_toes
				{
					OFFSET	0	-60	-88.6
					CHANNELS 3  Xrotation Yrotation Zrotation
					JOINT right_foot_ee
					{
						OFFSET	22.5	-16.5	-42.2
						CHANNELS 3  Xrotation Yrotation Zrotation
						End Site
						{
							OFFSET	1	0	0
						}
					}
				}
			}
		}
	}
}
MOTION
Frames: 12
Frame Time: 0.02
3661.38 732.087 -1554.97 -14.584 72.5389 10.1612 -0.73558 0.351282 2.61358 -0.731799 0.184321 2.63062 -0.720656 -0.40571 2.60569 -0.73013 0.010753 2.63704 -3.00262 11.4371 -7.3693 -2.42592 26.4844 -6.13807 -0.0 0.0 -0.0 -4.32861 17.1205 -4.72307 9.73755 -18.8608 73.7937 3.70221 -61.3817 2.19791 -46.8089 -3.70263 4.50569 2.4861 29.9013 25.8212 -0.0 0.0 -0.0 2.64538 9.05511 -4.37596 -9.46881 34.6153 -71.5618 0.853881 22.9276 -0.173165 -54.2455 4.57702 -4.88632 0.343688 11.6987 2.65539 0.0 0.0 0.0 4.0534 -5.47953 4.14088 -7.39839 0.233163 1.11071 38.6137 25.9508 -5.06351 -31.9784 0.0 0.0 -0.0 0.0 -0.0 8.11056 7.37702 2.66783 -8.26125 -0.250961 -1.24192 24.4881 7.87948 3.37956 0.998303 -0.0 -0.0 0.0 0.0 0.0 
3654.34 727.113 -1556.92 -13.8538 72.1032 9.1441 -0.70848 0.3514 2.61861 -0.704684 0.184118 2.63565 -0.693552 -0.405793 2.61074 -0.703064 0.0114684 2.64205 -1.86051 11.591 -7.59658 -1.15144 26.9019 -6.66631 -0.0 0.0 -0.0 -4.36916 17.1964 -4.76918 8.6947 -18.4243 73.8235 3.70783 -61.4182 2.20284 -46.7197 -3.69245 4.50044 2.47986 29.5234 25.7138 -0.0 0.0 -0.0 2.596 10.1226 -4.18109 -10.0621 34.8018 -71.2439 0.83857 22.558 -0.167246 -54.1247 4.56244 -4.88105 0.382459 12.4741 2.7261 0.0 0.0 0.0 4.56755 -5.88387 3.98067 -7.96885 0.245151 1.19743 40.0594 26.0366 -5.20853 -31.2155 0.0 0.0 -0.0 0.0 -0.0 7.68095 6.97329 2.76463 -9.3649 -0.270841 -1.4101 25.893 5.7615 3.51414 1.84249 -0.0 -0.0 0.0 0.0 0.0 
3639.46 722.136 -1556.92 -12.2557 72.265 7.55942 -0.650454 0.677945 2.55171 -0.646979 0.514255 2.58964 -0.620807 -0.0699772 2.63925 -0.630359 0.347576 2.61721 0.143529 11.0937 -8.3447 1.0697 26.5312 -8.06674 -0.0 0.0 -0.0 -4.33775 17.6112 -4.62344 7.33326 -18.6733 74.4014 3.83202 -62.203 2.31231 -47.8026 -3.81652 4.56307 2.3334 29.8247 24.8839 -0.0 0.0 -0.0 2.16023 9.58374 -3.32796 -11.9244 35.1768 -71.5631 0.84287 22.662 -0.168899 -54.5349 4.61198 -4.89881 0.174671 11.5554 3.73535 0.0 0.0 0.0 5.48584 -6.00349 4.39272 -14.159 0.319481 2.14387 42.9953 25.4112 -5.46071 -29.9566 0.0 0.0 -0.0 0.0 -0.0 6.48223 8.1993 3.5867 -10.733 -0.290981 -1.61905 30.2693 6.17002 4.00791 1.4598 -0.0 -0.0 0.0 0.0 0.0 
3629.58 718.2 -1557.44 -10.4531 72.362 5.94509 -0.735965 0.693636 2.45719 -0.732766 0.535923 2.49632 -0.706566 -0.0320391 2.55296 -0.715469 0.371425 2.52602 1.22836 10.9148 -8.65171 2.26962 26.4203 -8.71128 -0.0 0.0 -0.0 -4.48375 18.3935 -4.66553 5.18054 -20.2879 74.3505 3.85086 -62.3186 2.32898 -48.7379 -3.92462 4.61527 2.14554 29.708 23.7363 -0.0 0.0 -0.0 2.40307 10.0573 -3.78714 -13.8084 34.7158 -70.9312 0.81096 21.8865 -0.156804 -55.1833 4.69053 -4.92616 -0.0387671 10.7229 4.82321 0.0 0.0 0.0 6.0975 -8.00021 4.67231 -17.4113 0.317472 2.6428 43.3295 25.8562 -5.50696 -25.3394 0.0 0.0 -0.0 0.0 -0.0 5.64397 8.05969 3.97315 -11.2529 -0.297326 -1.69858 32.013 7.5663 4.21481 2.65161 -0.0 -0.0 0.0 0.0 0.0 
3620.17 713.475 -1563.33 -8.78341 72.9075 4.25903 -0.790342 0.695535 2.50334 -0.787014 0.534884 2.54249 -0.760279 -0.0457524 2.59771 -0.76951 0.364943 2.57237 3.2751 11.0384 -9.01916 4.5647 26.8381 -9.67795 -0.0 0.0 -0.0 -4.66968 18.5341 -4.9176 4.27631 -19.8229 74.3461 3.6705 -61.1743 2.1701 -48.9322 -3.94718 4.6259 2.01358 29.67 22.9454 -0.0 0.0 -0.0 2.4387 10.3092 -3.83836 -14.8003 34.838 -70.9731 0.792495 21.4338 -0.149988 -55.7787 4.76293 -4.95049 -0.00192722 10.9258 4.66051 0.0 0.0 0.0 6.52549 -7.45803 4.87579 -20.7691 0.285703 3.15695 43.4491 25.6856 -5.51135 -25.3663 0.0 0.0 -0.0 0.0 -0.0 5.00547 7.76029 4.02307 -12.6442 -0.31075 -1.91162 34.0937 6.83139 4.41364 1.75744 -0.0 -0.0 0.0 0.0 0.0 
3614.4 712.463 -1566.58 -7.97237 72.2241 3.28226 -0.871509 0.668493 2.51488 -0.868133 0.507164 2.55228 -0.842467 -0.078721 2.60096 -0.851754 0.332901 2.58079 5.07249 10.1092 -11.0603 6.72725 26.8825 -12.6144 -0.0 0.0 -0.0 -4.22924 18.3931 -4.27442 2.72234 -20.1393 73.6299 3.17573 -57.5449 1.7442 -48.921 -3.94587 4.62528 1.89629 29.4016 22.1945 -0.0 0.0 -0.0 2.6198 9.96332 -4.24437 -13.7238 35.2772 -71.8276 0.732836 19.9522 -0.128905 -56.3042 4.82703 -4.97133 -0.0644362 10.1978 4.77273 0.0 0.0 0.0 6.81375 -7.97088 4.92651 -23.1306 0.245341 3.51705 42.8903 26.0142 -5.47323 -22.9327 0.0 0.0 -0.0 0.0 -0.0 4.81951 9.46109 3.98124 -14.0867 -0.319204 -2.13278 35.5841 8.45438 4.5893 1.57052 -0.0 -0.0 0.0 0.0 0.0 
3600.2 709.784 -1565.99 -5.20125 73.5365 0.39942 -1.05676 0.646133 2.60256 -1.05312 0.479275 2.63837 -1.02762 -0.133925 2.67817 -1.03751 0.29057 2.66574 5.14492 9.80566 -11.7238 6.87923 26.9314 -13.4382 -0.0 0.0 -0.0 -4.11558 18.7231 -4.0249 1.08255 -20.3969 73.3424 3.04667 -56.4603 1.63595 -48.9068 -3.94422 4.62451 1.85095 29.2459 21.8923 -0.0 0.0 -0.0 2.5526 10.8561 -4.02597 -13.9191 35.6097 -71.7628 0.687557 18.8087 -0.113879 -56.8304 4.89141 -4.99162 -0.0766252 9.31396 4.47767 0.0 0.0 0.0 7.17165 -8.19197 4.91184 -24.6272 0.21209 3.7443 42.7137 26.2021 -5.46414 -21.3006 0.0 0.0 -0.0 0.0 -0.0 3.92064 10.2132 3.96976 -15.8586 -0.321964 -2.40462 36.691 8.48739 4.69533 1.87958 -0.0 -0.0 0.0 0.0 0.0 
3591.25 703.39 -1570.03 -1.37539 73.5745 -3.44302 -1.0628 0.668643 2.62939 -1.05909 0.500034 2.66657 -1.03229 -0.120334 2.71035 -1.04241 0.309067 2.69537 6.99269 8.44411 -14.1731 9.17808 26.7196 -17.0006 -0.0 0.0 -0.0 -4.82568 21.3698 -4.44878 -0.201549 -22.983 72.3276 2.88574 -55.015 1.50293 -49.1809 -3.97611 4.63938 1.83931 28.42 21.6323 -0.0 0.0 -0.0 2.88248 10.3048 -4.7595 -11.7339 35.6613 -71.4218 0.641191 17.6214 -0.099385 -57.0373 4.91677 -4.99943 0.096352 9.6658 3.45741 0.0 0.0 0.0 7.08867 -8.33897 5.09983 -29.8713 0.0489741 4.5323 42.8109 25.8962 -5.46166 -15.9441 0.0 0.0 -0.0 0.0 -0.0 5.81173 13.8105 2.97051 -24.9146 -0.205026 -3.78783 40.0883 7.55952 4.9828 4.45961 -0.0 -0.0 0.0 0.0 0.0 
3581.53 699.785 -1575.37 -0.0105552 73.3805 -4.8324 -1.1162 0.67776 2.75285 -1.11212 0.501286 2.79036 -1.08381 -0.149868 2.83104 -1.09487 0.298941 2.8192 4.69853 9.52549 -14.1664 6.82061 28.5464 -16.2892 -0.0 0.0 -0.0 -5.67927 23.8918 -4.9897 -1.20853 -25.2438 72.2446 2.81429 -54.338 1.44464 -48.6993 -3.92014 4.61315 1.9625 28.3343 22.3461 -0.0 0.0 -0.0 3.09617 9.57094 -5.26336 -8.31014 36.4968 -71.9078 0.785993 21.2738 -0.14762 -57.135 4.92875 -5.00309 0.179805 10.6688 3.3217 0.0 0.0 0.0 7.22388 -8.12093 4.45478 -30.5365 0.023143 4.63112 41.2514 26.4725 -5.33821 -11.392 0.0 0.0 -0.0 0.0 -0.0 6.39916 14.4799 3.04141 -30.3747 -0.0295344 -4.6071 39.6344 5.90446 4.91418 6.70816 -0.0 -0.0 0.0 0.0 0.0 
3578.55 694.823 -1576.4 1.15619 74.7477 -6.03447 -1.32012 0.592715 2.89023 -1.31557 0.407682 2.92205 -1.29041 -0.281843 2.93685 -1.3024 0.185307 2.94451 5.30936 9.15996 -15.2599 7.67996 28.8609 -17.8445 -0.0 0.0 -0.0 -5.72268 23.5637 -5.14268 -2.46958 -26.6997 71.7962 2.66563 -52.854 1.32498 -48.7342 -3.92419 4.61507 2.10319 28.6602 23.2616 -0.0 0.0 -0.0 2.93064 8.93682 -4.97365 -5.8783 37.5707 -72.1769 0.760979 20.6547 -0.138671 -57.524 4.97653 -5.01745 0.25624 9.92491 2.48734 0.0 0.0 0.0 7.06191 -8.01265 4.59357 -31.4377 -0.0136826 4.76452 42.2778 25.8169 -5.41008 -8.18043 0.0 0.0 -0.0 0.0 -0.0 8.33803 15.5641 2.43337 -35.5557 0.208499 -5.36615 39.5002 3.34954 4.86577 7.58768 -0.0 -0.0 0.0 0.0 0.0 
3576.36 694.097 -1577.22 3.10102 74.9409 -8.36168 -1.55956 0.712494 3.10316 -1.55435 0.513689 3.14215 -1.52064 -0.2425 3.17459 -1.53461 0.261651 3.17307 4.66678 9.07261 -15.7453 7.04816 29.121 -18.2208 -0.0 0.0 -0.0 -5.75513 23.7965 -5.12203 -3.09205 -27.076 71.8579 2.61026 -52.274 1.28101 -49.2689 -3.98636 4.64412 2.04942 28.463 22.8955 -0.0 0.0 -0.0 3.29157 8.48437 -5.75271 -4.54765 37.2916 -72.3632 0.827094 22.2796 -0.162869 -57.3863 4.95961 -5.0124 0.240679 9.87181 2.56979 0.0 0.0 0.0 8.41478 -4.45671 3.3045 -32.6701 -0.067431 4.94597 41.1156 25.358 -5.2859 -6.87319 0.0 0.0 -0.0 0.0 -0.0 7.21656 13.2485 3.7873 -36.0812 0.236462 -5.44189 39.3333 3.9356 4.85874 8.48505 -0.0 -0.0 0.0 0.0 0.0 
3565.83 687.708 -1578.64 6.767 75.842 -12.4278 -1.69474 0.729457 3.32338 -1.68874 0.516627 3.363 -1.6519 -0.299601 3.3892 -1.66785 0.239103 3.394 2.68925 9.41567 -16.1196 4.94498 29.9684 -17.9733 -0.0 0.0 -0.0 -6.39459 24.9269 -5.66932 -4.10647 -28.2785 71.4757 2.57114 -51.8547 1.25016 -49.303 -3.99033 4.64595 2.13755 27.9209 23.3071 -0.0 0.0 -0.0 3.45486 7.82694 -6.13783 -2.44996 37.7629 -73.1196 0.8896 23.7819 -0.187325 -57.3208 4.95157 -5.00999 0.29986 10.0667 2.25322 0.0 0.0 0.0 9.9212 -3.91275 3.7906 -35.7924 -0.221005 5.40029 39.7354 24.8143 -5.13645 -5.12777 0.0 0.0 -0.0 0.0 -0.0 6.94547 14.1576 3.98918 -40.6228 0.506866 -6.08524 39.5342 1.74002 4.85074 9.24738 -0.0 -0.0 0.0 0.0 0.0 
